<svg width="150" height="150" viewBox="0 0 150 150" fill="none" xmlns="http://www.w3.org/2000/svg">
<g clip-path="url(#clip0)">
<path d="M42.4219 4.97941C39.1113 -0.23543 31.5234 -1.70027 26.6016 2.22551C10.3418 15.204 0 34.5693 0 56.2489H75L42.4219 4.97941ZM145.312 28.1239H131.25C120.908 28.1239 112.5 36.5322 112.5 46.8739V65.6239H0C0 80.4482 6.73828 93.8661 17.666 103.915C7.5293 106.522 0 115.634 0 126.561C0 139.511 10.4883 149.999 23.4375 149.999C36.3867 149.999 46.875 139.511 46.875 126.561C46.875 123.954 46.3477 121.522 45.5859 119.179C51.9141 120.907 58.6523 121.874 65.625 121.874C72.5977 121.874 79.3652 120.907 85.6641 119.179C84.873 121.522 84.375 123.954 84.375 126.561C84.375 139.511 94.8633 149.999 107.812 149.999C120.762 149.999 131.25 139.511 131.25 126.561C131.25 115.634 123.721 106.522 113.584 103.915C124.512 93.8661 131.25 80.4482 131.25 65.6239V46.8739H145.312C147.891 46.8739 150 44.7646 150 42.1864V32.8114C150 30.2333 147.891 28.1239 145.312 28.1239ZM23.4375 135.936C18.2812 135.936 14.0625 131.718 14.0625 126.561C14.0625 121.405 18.2812 117.186 23.4375 117.186C28.5938 117.186 32.8125 121.405 32.8125 126.561C32.8125 131.718 28.5938 135.936 23.4375 135.936ZM117.188 126.561C117.188 131.718 112.969 135.936 107.812 135.936C102.656 135.936 98.4375 131.718 98.4375 126.561C98.4375 121.405 102.656 117.186 107.812 117.186C112.969 117.186 117.188 121.405 117.188 126.561Z" fill="#4D86BB"/>
<path d="M52.1 79L50.3 69H52L53.38 76.6H53.48L55.3 71H56.9L58.72 76.6H58.82L60.2 69H61.9L60.1 79H57.9L56.14 73.6H56.06L54.3 79H52.1ZM64.307 79L62.507 69H64.207L65.587 76.6H65.687L67.507 71H69.107L70.927 76.6H71.027L72.407 69H74.107L72.307 79H70.107L68.347 73.6H68.267L66.507 79H64.307ZM76.5141 79L74.7141 69H76.4141L77.7941 76.6H77.8941L79.7141 71H81.3141L83.1341 76.6H83.2341L84.6141 69H86.3141L84.5141 79H82.3141L80.5541 73.6H80.4741L78.7141 79H76.5141ZM87.4211 79.1V76.9H89.2211V79.1H87.4211Z" fill="white"/>
<path d="M42.6 97.2C42 97.2 41.5 97 41.1 96.6C40.7133 96.2 40.4467 95.6 40.3 94.8L39.8 92.2C39.68 91.5467 39.4533 91.0867 39.12 90.82C38.8 90.54 38.3933 90.4 37.9 90.4H37.2V97H35.4V83H37.2V89H37.9C38.74 89 39.3067 88.4 39.6 87.2L40.1 85.2C40.3 84.4 40.5933 83.8 40.98 83.4C41.3667 83 41.84 82.8 42.4 82.8C42.6933 82.8 42.9667 82.8333 43.22 82.9C43.4733 82.9533 43.6 82.9867 43.6 83V83.9C43.12 83.9 42.76 84.0133 42.52 84.24C42.28 84.4533 42.1067 84.7733 42 85.2L41.5 87.2C41.3 88.0133 41.0667 88.5933 40.8 88.94C40.5333 89.2867 40.1667 89.5267 39.7 89.66V89.74C40.2467 89.8867 40.68 90.14 41 90.5C41.32 90.8467 41.5533 91.4133 41.7 92.2L42.2 94.8C42.28 95.1867 42.4467 95.5 42.7 95.74C42.9667 95.98 43.3333 96.1 43.8 96.1V97C43.8 97.0133 43.6733 97.0467 43.42 97.1C43.1667 97.1667 42.8933 97.2 42.6 97.2ZM49.007 97.2C48.0604 97.2 47.2737 96.9867 46.647 96.56C46.0204 96.12 45.5404 95.3733 45.207 94.32C44.8737 93.2533 44.707 91.8133 44.707 90C44.707 88.1867 44.8737 86.7533 45.207 85.7C45.5404 84.6333 46.0204 83.8867 46.647 83.46C47.2737 83.02 48.0604 82.8 49.007 82.8C49.9537 82.8 50.7404 83.02 51.367 83.46C51.9937 83.8867 52.4737 84.6333 52.807 85.7C53.1404 86.7533 53.307 88.1867 53.307 90C53.307 91.8133 53.1404 93.2533 52.807 94.32C52.4737 95.3733 51.9937 96.12 51.367 96.56C50.7404 96.9867 49.9537 97.2 49.007 97.2ZM49.007 96C50.6737 96 51.507 94 51.507 90C51.507 86 50.6737 84 49.007 84C47.3404 84 46.507 86 46.507 90C46.507 94 47.3404 96 49.007 96ZM55.3172 97.2C55.0239 97.2 54.7505 97.1667 54.4972 97.1C54.2439 97.0467 54.1172 97.0133 54.1172 97V96.1C54.7039 96.1 55.1705 95.8467 55.5172 95.34C55.8639 94.8333 56.0639 93.9867 56.1172 92.8L56.6172 83H63.3172V97H61.5172V84.4H58.3572L57.9172 92.8C57.8372 94.3067 57.5572 95.42 57.0772 96.14C56.6105 96.8467 56.0239 97.2 55.3172 97.2ZM66.1227 97.2C65.8693 97.2 65.6227 97.1733 65.3827 97.12C65.1427 97.0667 64.9893 97.0267 64.9227 97V96.1C65.4027 96.1 65.7627 95.9933 66.0027 95.78C66.2427 95.5533 66.416 95.2267 66.5227 94.8L66.9227 93.1C67.216 91.8467 67.716 91.1067 68.4227 90.88V90.8C67.956 90.7333 67.516 90.5467 67.1027 90.24C66.7027 89.9333 66.3693 89.5067 66.1027 88.96C65.8493 88.4133 65.7227 87.76 65.7227 87C65.7227 85.9867 65.8693 85.18 66.1627 84.58C66.456 83.9667 66.916 83.52 67.5427 83.24C68.1827 82.9467 69.0427 82.8 70.1227 82.8C71.3627 82.8 72.4293 82.9333 73.3227 83.2V97H71.5227V91.3H70.7227C69.7493 91.3 69.116 91.9 68.8227 93.1L68.4227 94.8C68.2227 95.6 67.9293 96.2 67.5427 96.6C67.156 97 66.6827 97.2 66.1227 97.2ZM71.5227 89.9V84.1H70.1227C69.216 84.1 68.556 84.3267 68.1427 84.78C67.7293 85.22 67.5227 85.96 67.5227 87C67.5227 88.04 67.7293 88.7867 68.1427 89.24C68.556 89.68 69.216 89.9 70.1227 89.9H71.5227ZM80.1227 97.2C79.136 97.2 78.3227 96.9867 77.6827 96.56C77.0427 96.12 76.556 95.3733 76.2227 94.32C75.8893 93.2667 75.7227 91.8267 75.7227 90C75.7227 88.1867 75.8893 86.7533 76.2227 85.7C76.556 84.6467 77.0227 83.9 77.6227 83.46C78.236 83.02 79.0027 82.8 79.9227 82.8C80.4827 82.8 81.0427 82.84 81.6027 82.92C82.1627 83 82.6027 83.0933 82.9227 83.2V84.1H80.3227C79.4293 84.1 78.736 84.5333 78.2427 85.4C77.7627 86.2667 77.5227 87.8 77.5227 90C77.5227 91.5067 77.6427 92.6933 77.8827 93.56C78.1227 94.4267 78.4627 95.0333 78.9027 95.38C79.3427 95.7267 79.8827 95.9 80.5227 95.9H83.1227V96.8C82.8027 96.9067 82.3627 97 81.8027 97.08C81.256 97.16 80.696 97.2 80.1227 97.2ZM92.0141 97.2C91.4141 97.2 90.9141 97 90.5141 96.6C90.1274 96.2 89.8607 95.6 89.7141 94.8L89.2141 92.2C89.0941 91.5467 88.8674 91.0867 88.5341 90.82C88.2141 90.54 87.8074 90.4 87.3141 90.4H86.6141V97H84.8141V83H86.6141V89H87.3141C88.1541 89 88.7207 88.4 89.0141 87.2L89.5141 85.2C89.7141 84.4 90.0074 83.8 90.3941 83.4C90.7807 83 91.2541 82.8 91.8141 82.8C92.1074 82.8 92.3807 82.8333 92.6341 82.9C92.8874 82.9533 93.0141 82.9867 93.0141 83V83.9C92.5341 83.9 92.1741 84.0133 91.9341 84.24C91.6941 84.4533 91.5207 84.7733 91.4141 85.2L90.9141 87.2C90.7141 88.0133 90.4807 88.5933 90.2141 88.94C89.9474 89.2867 89.5807 89.5267 89.1141 89.66V89.74C89.6607 89.8867 90.0941 90.14 90.4141 90.5C90.7341 90.8467 90.9674 91.4133 91.1141 92.2L91.6141 94.8C91.6941 95.1867 91.8607 95.5 92.1141 95.74C92.3807 95.98 92.7474 96.1 93.2141 96.1V97C93.2141 97.0133 93.0874 97.0467 92.8341 97.1C92.5807 97.1667 92.3074 97.2 92.0141 97.2ZM93.7164 97L97.1164 83H99.7164L103.116 97H101.316L100.416 93.4H96.4164L95.5164 97H93.7164ZM96.7164 92H100.116L98.4564 85H98.3764L96.7164 92Z" fill="white"/>
<path d="M55.8 113.1V110.9H57.6V113.1H55.8ZM61.4984 117.2C60.9651 117.2 60.3651 117.067 59.6984 116.8V116H61.0984C61.4451 116 61.7318 115.92 61.9584 115.76C62.1851 115.613 62.3784 115.34 62.5384 114.94C62.7118 114.54 62.8651 113.96 62.9984 113.2C61.7584 113.2 60.9584 112.4 60.5984 110.8L58.7984 103H60.5984L62.3984 110.8C62.5584 111.533 62.8384 111.9 63.2384 111.9L64.8984 103H66.6984L64.7984 113.2C64.5318 114.6 64.1384 115.613 63.6184 116.24C63.0984 116.88 62.3918 117.2 61.4984 117.2ZM74.9047 113.2C74.3714 113.2 73.9447 113.06 73.6247 112.78C73.3047 112.487 73.0647 112.06 72.9047 111.5L72.4047 109.6C72.298 109.2 72.1314 108.9 71.9047 108.7C71.678 108.5 71.4047 108.4 71.0847 108.4H70.4047V113H68.6047V103H70.4047V107.1H71.0847C71.5514 107.1 71.9247 106.7 72.2047 105.9L72.7047 104.5C72.918 103.9 73.1714 103.467 73.4647 103.2C73.758 102.933 74.1714 102.8 74.7047 102.8C74.918 102.8 75.138 102.827 75.3647 102.88C75.5914 102.933 75.738 102.973 75.8047 103V103.8C75.4314 103.8 75.158 103.86 74.9847 103.98C74.8114 104.1 74.6847 104.273 74.6047 104.5L74.1047 105.9C73.9047 106.473 73.698 106.893 73.4847 107.16C73.2714 107.413 73.0047 107.58 72.6847 107.66V107.74C73.0847 107.833 73.4114 108.013 73.6647 108.28C73.9314 108.547 74.1447 108.987 74.3047 109.6L74.8047 111.5C74.9247 111.967 75.3247 112.2 76.0047 112.2V113C75.9514 113.027 75.818 113.067 75.6047 113.12C75.3914 113.173 75.158 113.2 74.9047 113.2ZM77.5109 103H79.0109L79.1109 103.6H79.2109C79.4643 103.347 79.7776 103.153 80.1509 103.02C80.5243 102.873 80.9109 102.8 81.3109 102.8C82.4176 102.8 83.2443 103.187 83.7909 103.96C84.3376 104.733 84.6109 106.08 84.6109 108C84.6109 109.92 84.3376 111.267 83.7909 112.04C83.2443 112.813 82.4176 113.2 81.3109 113.2C80.6443 113.2 79.9776 113.033 79.3109 112.7V117H77.5109V103ZM80.7109 112C81.4176 112 81.9443 111.713 82.2909 111.14C82.6376 110.553 82.8109 109.507 82.8109 108C82.8109 106.493 82.6376 105.453 82.2909 104.88C81.9443 104.293 81.4176 104 80.7109 104C80.4709 104 80.2176 104.04 79.9509 104.12C79.6843 104.2 79.4709 104.293 79.3109 104.4V111.6C79.4709 111.707 79.6843 111.8 79.9509 111.88C80.2176 111.96 80.4709 112 80.7109 112Z" fill="white"/>
</g>
<defs>
<clipPath id="clip0">
<rect width="150" height="150" fill="white"/>
</clipPath>
</defs>
</svg>
